<svg width="24" height="24" viewBox="0 0 24 24" fill="none" xmlns="http://www.w3.org/2000/svg">
<path d="M18.5343 6.43262C18.825 6.13755 18.8214 5.66269 18.5264 5.37199C18.2313 5.08128 17.7564 5.08482 17.4657 5.37988L12 10.9276L6.53426 5.37988C6.24356 5.08482 5.7687 5.08128 5.47363 5.37199C5.17857 5.66269 5.17503 6.13755 5.46574 6.43262L10.9471 11.9962L5.46574 17.5599C5.17503 17.8549 5.17857 18.3298 5.47363 18.6205C5.7687 18.9112 6.24356 18.9077 6.53426 18.6126L12 13.0649L17.4657 18.6126C17.7564 18.9077 18.2313 18.9112 18.5264 18.6205C18.8214 18.3298 18.825 17.8549 18.5343 17.5599L13.0529 11.9962L18.5343 6.43262Z" fill="#01071C"/>
</svg>
